<svg width="512" height="512" viewBox="0 0 512 512" xmlns="http://www.w3.org/2000/svg">
  <!-- Background circle -->
  <circle cx="256" cy="256" r="240" fill="#6366F1" stroke="#4F46E5" stroke-width="8"/>
  
  <!-- Dog head -->
  <ellipse cx="256" cy="280" rx="120" ry="100" fill="#FFA726"/>
  
  <!-- Dog ears -->
  <ellipse cx="200" cy="220" rx="35" ry="60" fill="#FF8F00" transform="rotate(-30 200 220)"/>
  <ellipse cx="312" cy="220" rx="35" ry="60" fill="#FF8F00" transform="rotate(30 312 220)"/>
  
  <!-- Inner ears -->
  <ellipse cx="200" cy="220" rx="20" ry="40" fill="#FF6F00" transform="rotate(-30 200 220)"/>
  <ellipse cx="312" cy="220" rx="20" ry="40" fill="#FF6F00" transform="rotate(30 312 220)"/>
  
  <!-- Dog snout -->
  <ellipse cx="256" cy="320" rx="45" ry="35" fill="#FFB74D"/>
  
  <!-- Dog nose -->
  <ellipse cx="256" cy="310" rx="12" ry="8" fill="#424242"/>
  
  <!-- Dog mouth -->
  <path d="M 256 325 Q 240 340 230 330" stroke="#424242" stroke-width="3" fill="none" stroke-linecap="round"/>
  <path d="M 256 325 Q 272 340 282 330" stroke="#424242" stroke-width="3" fill="none" stroke-linecap="round"/>
  
  <!-- Dog eyes -->
  <circle cx="230" cy="260" r="18" fill="#424242"/>
  <circle cx="282" cy="260" r="18" fill="#424242"/>
  
  <!-- Eye highlights -->
  <circle cx="235" cy="255" r="6" fill="#FFFFFF"/>
  <circle cx="287" cy="255" r="6" fill="#FFFFFF"/>
  
  <!-- Dog spots -->
  <circle cx="200" cy="300" r="15" fill="#FF8F00"/>
  <circle cx="320" cy="280" r="12" fill="#FF8F00"/>
  <circle cx="280" cy="340" r="10" fill="#FF8F00"/>
  
  <!-- Dog tongue (optional cute detail) -->
  <ellipse cx="256" cy="345" rx="8" ry="12" fill="#E91E63"/>
</svg>